<svg xmlns="http://www.w3.org/2000/svg" viewBox="0 0 136 72" role="img" aria-label="FloatingActionPair 52px — default">
<defs>
  <filter id="fabShadow" x="-45%" y="-45%" width="190%" height="190%">
    <feDropShadow dx="0" dy="6" stdDeviation="7" flood-color="#0F172A" flood-opacity="0.18"/>
  </filter>
  <filter id="softShadow" x="-35%" y="-35%" width="170%" height="170%">
    <feDropShadow dx="0" dy="2" stdDeviation="3" flood-color="#0F172A" flood-opacity="0.12"/>
  </filter>
</defs>
<circle cx="36" cy="36" r="26" fill="#7C4DFF" filter="url(#fabShadow)"/>
<g fill="none" stroke-linecap="round" stroke-linejoin="round">
  <path d="M30.96 43.56H41.04" stroke="#FFFFFF" stroke-width="1.89"/>
  <path d="M32.22 46.50H39.78" stroke="#FFFFFF" stroke-width="1.89"/>
  <path d="M28.65 34.32a7.35 7.35 0 1 1 14.70 0c0 3.15-1.58 5.67-3.68 7.14h-7.35c-2.10-3.68-3.68-3.68-7.14z" stroke="#FFFFFF" stroke-width="1.89"/>
  <path d="M36.00 28.65v2.73M33.80 30.02l1.37 1.37M38.20 30.02l-1.37 1.37" stroke="#FFFFFF" stroke-width="1.31"/>
  <circle cx="36.00" cy="31.38" r="1.16" fill="#FFFFFF" stroke="none"/>
</g>
<circle cx="100" cy="36" r="26" fill="#0F766E" filter="url(#fabShadow)"/>
<g fill="none" stroke="#FFFFFF" stroke-width="3.00" stroke-linecap="round">
  <path d="M100.00 26.80v18.40"/>
  <path d="M90.80 36.00h18.40"/>
</g>
</svg>